<svg xmlns="http://www.w3.org/2000/svg" xmlns:xlink="http://www.w3.org/1999/xlink" width="64" zoomAndPan="magnify" viewBox="0 0 48 48" height="64" preserveAspectRatio="xMidYMid meet" version="1.0"><defs><clipPath id="01efc661f2"><path d="M 0.488281 0 L 47.507812 0 L 47.507812 47 L 0.488281 47 Z M 0.488281 0 " clip-rule="nonzero"/></clipPath></defs><g clip-path="url(#01efc661f2)"><path fill="#a60d27" d="M 19.203125 0 C 8.894531 0 0.488281 8.40625 0.488281 18.714844 C 0.488281 29.023438 8.894531 37.429688 19.203125 37.429688 C 23.9375 37.429688 28.261719 35.644531 31.5625 32.726562 L 33.242188 34.40625 L 33.242188 37.429688 L 41.628906 45.816406 C 42.921875 47.109375 45.015625 47.109375 46.308594 45.816406 C 47.597656 44.527344 47.597656 42.429688 46.308594 41.140625 L 37.917969 32.75 L 34.894531 32.75 L 33.21875 31.074219 C 36.132812 27.773438 37.917969 23.449219 37.917969 18.714844 C 37.917969 8.40625 29.511719 0 19.203125 0 Z M 19.203125 4.679688 C 26.984375 4.679688 33.242188 10.933594 33.242188 18.714844 C 33.242188 26.492188 26.984375 32.75 19.203125 32.75 C 11.425781 32.75 5.167969 26.492188 5.167969 18.714844 C 5.167969 10.933594 11.425781 4.679688 19.203125 4.679688 Z M 12.1875 14.035156 C 11.875 14.035156 11.578125 14.09375 11.292969 14.214844 C 11.003906 14.332031 10.75 14.5 10.53125 14.722656 C 10.3125 14.941406 10.144531 15.195312 10.023438 15.480469 C 9.90625 15.765625 9.847656 16.066406 9.847656 16.375 C 9.847656 16.683594 9.90625 16.984375 10.023438 17.269531 C 10.144531 17.558594 10.3125 17.808594 10.53125 18.03125 C 10.75 18.25 11.003906 18.417969 11.292969 18.535156 C 11.578125 18.65625 11.875 18.714844 12.1875 18.714844 C 12.496094 18.714844 12.796875 18.65625 13.082031 18.535156 C 13.367188 18.417969 13.621094 18.25 13.839844 18.03125 C 14.058594 17.808594 14.230469 17.558594 14.347656 17.269531 C 14.464844 16.984375 14.527344 16.683594 14.527344 16.375 C 14.527344 16.066406 14.464844 15.765625 14.347656 15.480469 C 14.230469 15.195312 14.058594 14.941406 13.839844 14.722656 C 13.621094 14.5 13.367188 14.332031 13.082031 14.214844 C 12.796875 14.09375 12.496094 14.035156 12.1875 14.035156 Z M 26.222656 14.035156 C 25.914062 14.035156 25.613281 14.09375 25.328125 14.214844 C 25.039062 14.332031 24.789062 14.5 24.566406 14.722656 C 24.347656 14.941406 24.179688 15.195312 24.0625 15.480469 C 23.941406 15.765625 23.882812 16.066406 23.882812 16.375 C 23.882812 16.683594 23.941406 16.984375 24.0625 17.269531 C 24.179688 17.558594 24.347656 17.808594 24.566406 18.03125 C 24.789062 18.25 25.039062 18.417969 25.328125 18.535156 C 25.613281 18.65625 25.914062 18.714844 26.222656 18.714844 C 26.53125 18.714844 26.832031 18.65625 27.117188 18.535156 C 27.402344 18.417969 27.65625 18.25 27.875 18.03125 C 28.097656 17.808594 28.265625 17.558594 28.382812 17.269531 C 28.503906 16.984375 28.5625 16.683594 28.5625 16.375 C 28.5625 16.066406 28.503906 15.765625 28.382812 15.480469 C 28.265625 15.195312 28.097656 14.941406 27.875 14.722656 C 27.65625 14.5 27.402344 14.332031 27.117188 14.214844 C 26.832031 14.09375 26.53125 14.035156 26.222656 14.035156 Z M 19.203125 21.042969 C 17.085938 21.042969 14.960938 21.6875 13.164062 22.972656 C 12.910156 23.152344 12.703125 23.375 12.539062 23.640625 C 12.375 23.902344 12.265625 24.1875 12.214844 24.492188 C 12.164062 24.800781 12.175781 25.105469 12.246094 25.40625 C 12.316406 25.707031 12.441406 25.984375 12.621094 26.238281 C 12.800781 26.492188 13.023438 26.699219 13.289062 26.863281 C 13.550781 27.027344 13.835938 27.132812 14.140625 27.183594 C 14.449219 27.234375 14.753906 27.226562 15.054688 27.15625 C 15.359375 27.085938 15.636719 26.960938 15.886719 26.777344 C 17.824219 25.394531 20.582031 25.394531 22.519531 26.777344 C 22.773438 26.960938 23.050781 27.085938 23.351562 27.152344 C 23.65625 27.222656 23.960938 27.234375 24.265625 27.183594 C 24.570312 27.132812 24.855469 27.023438 25.117188 26.859375 C 25.382812 26.695312 25.605469 26.488281 25.785156 26.234375 C 25.964844 25.984375 26.089844 25.707031 26.160156 25.40625 C 26.230469 25.101562 26.242188 24.796875 26.191406 24.492188 C 26.140625 24.1875 26.03125 23.902344 25.867188 23.640625 C 25.703125 23.375 25.496094 23.152344 25.246094 22.972656 C 23.445312 21.6875 21.324219 21.042969 19.203125 21.042969 Z M 19.203125 21.042969 " fill-opacity="1" fill-rule="nonzero"/></g></svg>
