<svg xmlns="http://www.w3.org/2000/svg" xmlns:xlink="http://www.w3.org/1999/xlink" width="16" zoomAndPan="magnify" viewBox="0 0 48 48" height="16" preserveAspectRatio="xMidYMid meet" version="1.0"><defs><g/><clipPath id="049e1514b3"><path d="M 0.488281 0 L 47.507812 0 L 47.507812 47.019531 L 0.488281 47.019531 Z M 0.488281 0 " clip-rule="nonzero"/></clipPath><clipPath id="0b614ad3c8"><path d="M 24 0 C 11.015625 0 0.488281 10.527344 0.488281 23.511719 C 0.488281 36.496094 11.015625 47.019531 24 47.019531 C 36.984375 47.019531 47.511719 36.496094 47.511719 23.511719 C 47.511719 10.527344 36.984375 0 24 0 " clip-rule="nonzero"/></clipPath></defs><g clip-path="url(#049e1514b3)"><g clip-path="url(#0b614ad3c8)"><path fill="#959ba4" d="M 0.488281 0 L 47.511719 0 L 47.511719 47.019531 L 0.488281 47.019531 Z M 0.488281 0 " fill-opacity="1" fill-rule="nonzero"/></g></g><g fill="#ffffff" fill-opacity="1"><g transform="translate(10.011295, 36.734695)"><g><path d="M 20.53125 0 L 13.90625 -9.515625 L 7.40625 0 L 0.125 0 L 10.265625 -13.953125 L 0.625 -27.4375 L 7.84375 -27.4375 L 14.140625 -18.53125 L 20.34375 -27.4375 L 27.203125 -27.4375 L 17.640625 -14.1875 L 27.859375 0 Z M 20.53125 0 "/></g></g></g></svg>
