<svg width="28" height="24" viewBox="0 0 28 24" fill="none" xmlns="http://www.w3.org/2000/svg">
<g id="logo">
<g id="icon">
<path id="Vector" d="M27.9794 22.3169C27.7941 22.927 27.4646 23.453 26.888 23.7475C26.538 23.9159 26.1879 24 25.8173 24C21.1224 24 16.407 24 11.7122 24C10.6208 24 9.81774 23.4109 9.57065 22.38C9.50887 22.1276 9.48828 21.8751 9.48828 21.6016C9.48828 18.551 9.48828 15.4793 9.48828 12.4287C9.48828 11.4819 9.79715 10.7245 10.662 10.2617C10.9915 10.0934 11.3621 10.0302 11.7122 10.0302C16.407 10.0302 21.1224 10.0302 25.8173 10.0302C26.9292 10.0302 27.6499 10.6193 28 11.7133V22.3169H27.9794ZM18.7544 17.0362C16.0981 17.0362 13.4418 17.0362 10.7855 17.0362C10.5384 17.0362 10.4149 17.1554 10.4149 17.3938C10.4149 18.8034 10.4149 20.213 10.4149 21.6437C10.4149 22.5904 10.8473 23.0322 11.7533 23.0322C16.407 23.0322 21.0813 23.0322 25.7349 23.0322C25.8173 23.0322 25.9202 23.0322 26.0026 23.0322C26.4144 22.9901 26.7233 22.8008 26.9292 22.4221C27.0528 22.1907 27.0528 21.9592 27.0528 21.7068C27.0528 20.2551 27.0116 18.8034 27.0939 17.3517C27.0939 17.0782 26.991 17.0362 26.7645 17.0362C24.1082 17.0362 21.4313 17.0362 18.775 17.0362H18.7544ZM18.7132 14.6588C21.3695 14.6588 24.0464 14.6588 26.7027 14.6588C26.9704 14.6588 27.0528 14.5746 27.0528 14.3011C27.0528 13.6068 27.0528 12.9336 27.0528 12.2393C27.0528 11.4398 26.5998 10.998 25.8173 10.998C21.1018 10.998 16.3864 10.998 11.671 10.998C10.8679 10.998 10.4149 11.4609 10.3943 12.3024C10.3943 12.9546 10.3943 13.6279 10.3943 14.2801C10.3943 14.5185 10.5179 14.6377 10.7649 14.6377C13.4212 14.6377 16.0569 14.6377 18.7132 14.6377V14.6588Z" fill="#4A46FF"/>
<path id="Vector_2" d="M13.8124 8.99935C12.5357 8.99935 11.2384 8.99935 9.96177 8.99935C8.91161 8.99935 8.29387 9.65155 8.29387 10.7245C8.29387 13.3754 8.29387 16.0053 8.29387 18.6562C8.29387 19.119 8.04677 19.3294 7.59376 19.2663C7.36725 19.2242 7.16134 19.119 6.99661 18.9507C4.75214 16.6575 2.52827 14.3853 0.324986 12.1131C-0.128025 11.6502 -0.107434 11.0822 0.386761 10.5983C1.84875 9.10454 3.31074 7.58975 4.79332 6.09599C6.62596 4.22354 8.47919 2.33005 10.3118 0.457594C10.909 -0.152531 11.4032 -0.152531 12.0003 0.457594C14.1418 2.64563 16.2833 4.8547 18.4248 7.0217C19.1661 7.7791 18.7955 8.4313 18.1777 8.93623C18.0748 9.02039 17.9512 8.99935 17.8277 8.99935C16.4893 8.99935 15.1508 8.99935 13.8124 8.99935ZM12.1445 8.64169C12.1445 8.64169 12.2062 8.59961 12.2474 8.55754C13.0505 7.73702 13.833 6.91651 14.636 6.11703C14.7596 5.9908 14.6978 5.92768 14.6154 5.82249C14.1212 5.3386 13.6476 4.83367 13.174 4.34977C13.0505 4.22354 12.9887 4.22354 12.8652 4.34977C12.0827 5.14925 11.3208 5.94872 10.5383 6.72716C10.4354 6.83235 10.3942 6.91651 10.5383 7.04274C11.0325 7.52663 11.5267 8.03156 12.0003 8.5365C12.0415 8.57857 12.0827 8.64169 12.1651 8.64169H12.1445Z" fill="#4A46FF"/>
</g>
</g>
</svg>
