<svg width="20" height="20" viewBox="0 0 20 20" fill="none" xmlns="http://www.w3.org/2000/svg">
<g id="apps-2-line">
<path id="Vector" d="M6.25 9.58333C4.17893 9.58333 2.5 7.90439 2.5 5.83333C2.5 3.76226 4.17893 2.08333 6.25 2.08333C8.32107 2.08333 10 3.76226 10 5.83333C10 7.90439 8.32107 9.58333 6.25 9.58333ZM6.25 17.9167C4.17893 17.9167 2.5 16.2377 2.5 14.1667C2.5 12.0956 4.17893 10.4167 6.25 10.4167C8.32107 10.4167 10 12.0956 10 14.1667C10 16.2377 8.32107 17.9167 6.25 17.9167ZM14.5833 9.58333C12.5122 9.58333 10.8333 7.90439 10.8333 5.83333C10.8333 3.76226 12.5122 2.08333 14.5833 2.08333C16.6544 2.08333 18.3333 3.76226 18.3333 5.83333C18.3333 7.90439 16.6544 9.58333 14.5833 9.58333ZM14.5833 17.9167C12.5122 17.9167 10.8333 16.2377 10.8333 14.1667C10.8333 12.0956 12.5122 10.4167 14.5833 10.4167C16.6544 10.4167 18.3333 12.0956 18.3333 14.1667C18.3333 16.2377 16.6544 17.9167 14.5833 17.9167ZM6.25 7.91666C7.40059 7.91666 8.33333 6.98392 8.33333 5.83333C8.33333 4.68274 7.40059 3.74999 6.25 3.74999C5.09941 3.74999 4.16667 4.68274 4.16667 5.83333C4.16667 6.98392 5.09941 7.91666 6.25 7.91666ZM6.25 16.25C7.40059 16.25 8.33333 15.3172 8.33333 14.1667C8.33333 13.0161 7.40059 12.0833 6.25 12.0833C5.09941 12.0833 4.16667 13.0161 4.16667 14.1667C4.16667 15.3172 5.09941 16.25 6.25 16.25ZM14.5833 7.91666C15.7339 7.91666 16.6667 6.98392 16.6667 5.83333C16.6667 4.68274 15.7339 3.74999 14.5833 3.74999C13.4327 3.74999 12.5 4.68274 12.5 5.83333C12.5 6.98392 13.4327 7.91666 14.5833 7.91666ZM14.5833 16.25C15.7339 16.25 16.6667 15.3172 16.6667 14.1667C16.6667 13.0161 15.7339 12.0833 14.5833 12.0833C13.4327 12.0833 12.5 13.0161 12.5 14.1667C12.5 15.3172 13.4327 16.25 14.5833 16.25Z" fill="#4B5563"/>
</g>
</svg>
