<svg xmlns="http://www.w3.org/2000/svg" xmlns:xlink="http://www.w3.org/1999/xlink" width="64" zoomAndPan="magnify" viewBox="0 0 48 48" height="64" preserveAspectRatio="xMidYMid meet" version="1.0"><defs><clipPath id="e79d992a35"><path d="M 0.488281 0 L 47.507812 0 L 47.507812 47.019531 L 0.488281 47.019531 Z M 0.488281 0 " clip-rule="nonzero"/></clipPath></defs><g clip-path="url(#e79d992a35)"><path fill="#5271ff" d="M 32.847656 24.878906 L 32.847656 35.628906 C 32.847656 35.628906 33.03125 37.425781 31.269531 37.425781 C 29.511719 37.425781 29.179688 35.8125 29.179688 35.8125 L 29.179688 24.878906 C 26.9375 23.835938 25.308594 20.976562 25.308594 17.574219 C 25.308594 13.292969 27.863281 9.820312 31.015625 9.820312 C 34.167969 9.820312 36.726562 13.292969 36.726562 17.574219 C 36.726562 20.980469 35.097656 23.839844 32.847656 24.878906 Z M 18.785156 25.324219 L 18.785156 35.117188 C 18.785156 35.117188 18.824219 37.226562 17.074219 37.226562 C 15.324219 37.226562 15.324219 35.15625 15.324219 35.15625 L 15.324219 25.28125 C 15.324219 25.28125 11.683594 24.605469 11.367188 21.023438 C 11.046875 17.4375 11.644531 11.269531 11.644531 11.269531 C 11.644531 11.269531 11.882812 9.992188 12.71875 9.992188 C 13.554688 9.992188 13.714844 11.386719 13.714844 11.386719 L 13.714844 18.910156 C 13.664062 19.394531 14.214844 19.945312 15.027344 19.945312 C 16.144531 19.945312 16.144531 19.152344 16.144531 19.152344 L 16.144531 11.464844 C 16.144531 11.464844 16.304688 9.875 17.257812 9.875 C 18.214844 9.875 18.214844 11.507812 18.214844 11.507812 L 18.214844 19.238281 C 18.214844 19.238281 18.1875 20.132812 19.214844 20.132812 C 20.484375 20.132812 20.460938 19.300781 20.460938 19.300781 L 20.460938 11.464844 C 20.460938 11.464844 20.363281 9.597656 21.71875 9.597656 C 22.792969 9.597656 22.832031 11.425781 22.832031 11.425781 C 22.832031 11.425781 22.9375 20.164062 22.9375 21.238281 C 22.9375 22.3125 21.851562 24.25 18.785156 25.324219 Z M 24 0 C 11.039062 0 0.492188 10.546875 0.492188 23.511719 C 0.492188 36.472656 11.039062 47.019531 24 47.019531 C 36.960938 47.019531 47.507812 36.472656 47.507812 23.511719 C 47.507812 10.546875 36.960938 0 24 0 " fill-opacity="1" fill-rule="nonzero"/></g></svg>