<svg width="20" height="20" viewBox="0 0 20 20" fill="none" xmlns="http://www.w3.org/2000/svg">
<g id="pie-chart-line">
<path id="Vector" d="M7.49996 2.04816V3.81792C5.05677 4.8069 3.33329 7.20217 3.33329 9.99999C3.33329 13.6819 6.31806 16.6667 9.99996 16.6667C12.7978 16.6667 15.193 14.9432 16.182 12.5H17.9518C16.8899 15.8809 13.7313 18.3333 9.99996 18.3333C5.39758 18.3333 1.66663 14.6023 1.66663 9.99999C1.66663 6.26862 4.11903 3.11005 7.49996 2.04816ZM9.99996 1.66666C14.6023 1.66666 18.3333 5.39761 18.3333 9.99999C18.3333 10.2812 18.3194 10.5592 18.2921 10.8333H9.16663V1.70781C9.44071 1.68059 9.71871 1.66666 9.99996 1.66666ZM10.8333 3.3849V9.16666H16.615C16.239 6.15106 13.8489 3.76094 10.8333 3.3849Z" fill="#4B5563"/>
</g>
</svg>
