<svg width="20" height="20" viewBox="0 0 20 20" fill="none" xmlns="http://www.w3.org/2000/svg">
<g id="question-fill">
<path id="Vector" d="M9.99999 18.3333C5.39761 18.3333 1.66666 14.6023 1.66666 9.99999C1.66666 5.39761 5.39761 1.66666 9.99999 1.66666C14.6023 1.66666 18.3333 5.39761 18.3333 9.99999C18.3333 14.6023 14.6023 18.3333 9.99999 18.3333ZM9.16666 12.5V14.1667H10.8333V12.5H9.16666ZM10.8333 11.1292C12.0381 10.7707 12.9167 9.65457 12.9167 8.33332C12.9167 6.72249 11.6108 5.41666 9.99999 5.41666C8.58499 5.41666 7.4053 6.42431 7.13941 7.76121L8.77399 8.08813C8.88799 7.51518 9.39357 7.08332 9.99999 7.08332C10.6903 7.08332 11.25 7.64296 11.25 8.33332C11.25 9.02366 10.6903 9.58332 9.99999 9.58332C9.53974 9.58332 9.16666 9.95641 9.16666 10.4167V11.6667H10.8333V11.1292Z" fill="#374151"/>
</g>
</svg>
