<svg width="20" height="20" viewBox="0 0 20 20" fill="none" xmlns="http://www.w3.org/2000/svg">
<g id="search-2-line">
<path id="Vector" d="M9.16663 1.66667C13.3066 1.66667 16.6666 5.02667 16.6666 9.16667C16.6666 13.3067 13.3066 16.6667 9.16663 16.6667C5.02663 16.6667 1.66663 13.3067 1.66663 9.16667C1.66663 5.02667 5.02663 1.66667 9.16663 1.66667ZM9.16663 15C12.3895 15 15 12.3896 15 9.16667C15 5.94376 12.3895 3.33334 9.16663 3.33334C5.94371 3.33334 3.33329 5.94376 3.33329 9.16667C3.33329 12.3896 5.94371 15 9.16663 15ZM16.2377 15.0593L18.5947 17.4163L17.4162 18.5948L15.0592 16.2378L16.2377 15.0593Z" fill="#959BA4"/>
</g>
</svg>
