<svg width="20" height="20" viewBox="0 0 20 20" fill="none" xmlns="http://www.w3.org/2000/svg">
<g id="git-branch-line">
<path id="Vector" d="M5.9209 12.6751C6.84588 13.0417 7.5 13.9445 7.5 15C7.5 16.3807 6.38071 17.5 5 17.5C3.61929 17.5 2.5 16.3807 2.5 15C2.5 13.9115 3.19568 12.9854 4.16667 12.6423V7.35774C3.19568 7.01455 2.5 6.08852 2.5 5C2.5 3.61929 3.61929 2.5 5 2.5C6.38071 2.5 7.5 3.61929 7.5 5C7.5 6.08852 6.80433 7.01455 5.83333 7.35774V9.99967C6.52972 9.47658 7.39532 9.16667 8.33333 9.16667H11.6667C12.8196 9.16667 13.7902 8.38625 14.0791 7.32492C13.1541 6.95823 12.5 6.05551 12.5 5C12.5 3.61929 13.6192 2.5 15 2.5C16.3807 2.5 17.5 3.61929 17.5 5C17.5 6.111 16.7753 7.05274 15.7728 7.37827C15.4352 9.34042 13.7252 10.8333 11.6667 10.8333H8.33333C7.18044 10.8333 6.20983 11.6137 5.9209 12.6751ZM5 14.1667C4.53977 14.1667 4.16667 14.5398 4.16667 15C4.16667 15.4602 4.53977 15.8333 5 15.8333C5.46023 15.8333 5.83333 15.4602 5.83333 15C5.83333 14.5398 5.46023 14.1667 5 14.1667ZM5 4.16667C4.53977 4.16667 4.16667 4.53977 4.16667 5C4.16667 5.46023 4.53977 5.83333 5 5.83333C5.46023 5.83333 5.83333 5.46023 5.83333 5C5.83333 4.53977 5.46023 4.16667 5 4.16667ZM15 4.16667C14.5398 4.16667 14.1667 4.53977 14.1667 5C14.1667 5.46023 14.5398 5.83333 15 5.83333C15.4602 5.83333 15.8333 5.46023 15.8333 5C15.8333 4.53977 15.4602 4.16667 15 4.16667Z" fill="#4B5563"/>
</g>
</svg>
